<svg width="133" height="30" viewBox="0 0 133 30" fill="none" xmlns="http://www.w3.org/2000/svg">
<path d="M13.5739 6.63636C13.446 5.55682 12.9276 4.71875 12.0185 4.12216C11.1094 3.52557 9.99432 3.22727 8.6733 3.22727C7.70739 3.22727 6.86222 3.38352 6.13778 3.69602C5.42045 4.00852 4.85938 4.43821 4.45455 4.98508C4.05682 5.53196 3.85795 6.15341 3.85795 6.84943C3.85795 7.43182 3.99645 7.93253 4.27344 8.35156C4.55753 8.76349 4.91974 9.10795 5.36009 9.38494C5.80043 9.65483 6.26207 9.87855 6.74503 10.0561C7.22798 10.2266 7.67188 10.3651 8.0767 10.4716L10.2926 11.0682C10.8608 11.2173 11.4929 11.4233 12.1889 11.6861C12.892 11.9489 13.5632 12.3075 14.2024 12.7621C14.8487 13.2095 15.3814 13.7848 15.8004 14.4879C16.2195 15.1911 16.429 16.054 16.429 17.0767C16.429 18.2557 16.12 19.321 15.5021 20.2727C14.8913 21.2244 13.9964 21.9808 12.8175 22.5419C11.6456 23.103 10.2216 23.3835 8.54545 23.3835C6.98295 23.3835 5.62997 23.1314 4.48651 22.6271C3.35014 22.1229 2.45526 21.4197 1.80185 20.5178C1.15554 19.6158 0.789773 18.5682 0.704546 17.375H3.43182C3.50284 18.1989 3.77983 18.8807 4.26278 19.4205C4.75284 19.9531 5.37074 20.3509 6.11648 20.6136C6.86932 20.8693 7.67898 20.9972 8.54545 20.9972C9.55398 20.9972 10.4595 20.8338 11.2621 20.5071C12.0646 20.1733 12.7003 19.7116 13.169 19.1222C13.6378 18.5256 13.8722 17.8295 13.8722 17.0341C13.8722 16.3097 13.6697 15.7202 13.2649 15.2656C12.8601 14.8111 12.3274 14.4418 11.6669 14.1577C11.0064 13.8736 10.2926 13.625 9.52557 13.4119L6.84091 12.6449C5.13636 12.1548 3.78693 11.4553 2.79261 10.5462C1.7983 9.63707 1.30114 8.44744 1.30114 6.97727C1.30114 5.75568 1.63139 4.69034 2.2919 3.78125C2.95952 2.86506 3.8544 2.15483 4.97656 1.65057C6.10582 1.1392 7.36648 0.883522 8.75852 0.883522C10.1648 0.883522 11.4148 1.13565 12.5085 1.63991C13.6023 2.13707 14.4688 2.81889 15.108 3.68537C15.7543 4.55185 16.0952 5.53551 16.1307 6.63636H13.5739ZM25.2473 23.3835C24.2104 23.3835 23.2694 23.1882 22.4242 22.7976C21.579 22.3999 20.9078 21.8281 20.4107 21.0824C19.9135 20.3295 19.665 19.4205 19.665 18.3551C19.665 17.4176 19.8496 16.6577 20.2189 16.0753C20.5882 15.4858 21.0819 15.0241 21.6998 14.6903C22.3176 14.3565 22.9995 14.108 23.7452 13.9446C24.498 13.7741 25.2544 13.6392 26.0144 13.5398C27.0087 13.4119 27.8148 13.3161 28.4327 13.2521C29.0577 13.1811 29.5123 13.0639 29.7963 12.9006C30.0875 12.7372 30.2331 12.4531 30.2331 12.0483V11.9631C30.2331 10.9119 29.9455 10.0952 29.3702 9.51278C28.802 8.9304 27.9391 8.6392 26.7814 8.6392C25.5811 8.6392 24.6401 8.90199 23.9583 9.42756C23.2765 9.95312 22.7971 10.5142 22.5201 11.1108L20.1337 10.2585C20.5598 9.2642 21.128 8.49006 21.8382 7.93608C22.5556 7.375 23.3368 6.98437 24.182 6.7642C25.0343 6.53693 25.8723 6.4233 26.6962 6.4233C27.2218 6.4233 27.8255 6.48722 28.5073 6.61506C29.1962 6.73579 29.8603 6.98793 30.4995 7.37145C31.1458 7.75497 31.682 8.33381 32.1081 9.10795C32.5343 9.8821 32.7473 10.919 32.7473 12.2188V23H30.2331V20.7841H30.1053C29.9348 21.1392 29.6507 21.5192 29.253 21.924C28.8553 22.3288 28.3262 22.6733 27.6657 22.9574C27.0051 23.2415 26.199 23.3835 25.2473 23.3835ZM25.6309 21.125C26.6252 21.125 27.4632 20.9297 28.1451 20.5391C28.834 20.1484 29.3525 19.6442 29.7005 19.0263C30.0556 18.4084 30.2331 17.7585 30.2331 17.0767V14.7756C30.1266 14.9034 29.8922 15.0206 29.53 15.1271C29.1749 15.2266 28.763 15.3153 28.2942 15.3935C27.8326 15.4645 27.3816 15.5284 26.9412 15.5852C26.508 15.6349 26.1564 15.6776 25.8865 15.7131C25.2331 15.7983 24.6223 15.9368 24.0542 16.1286C23.4931 16.3132 23.0385 16.5937 22.6905 16.9702C22.3496 17.3395 22.1792 17.8437 22.1792 18.483C22.1792 19.3565 22.5023 20.017 23.1486 20.4645C23.802 20.9048 24.6294 21.125 25.6309 21.125ZM37.3363 23V6.63636H39.7653V9.10795H39.9357C40.234 8.2983 40.7738 7.64134 41.555 7.13707C42.3363 6.63281 43.217 6.38068 44.1971 6.38068C44.3817 6.38068 44.6126 6.38423 44.8896 6.39133C45.1665 6.39844 45.3761 6.40909 45.5181 6.4233V8.98011C45.4329 8.95881 45.2376 8.92685 44.9322 8.88423C44.6339 8.83452 44.3178 8.80966 43.984 8.80966C43.1886 8.80966 42.4783 8.97656 41.8533 9.31037C41.2354 9.63707 40.7454 10.0916 40.3832 10.674C40.0281 11.2493 39.8505 11.9062 39.8505 12.6449V23H37.3363ZM53.3137 23.3835C52.2768 23.3835 51.3358 23.1882 50.4906 22.7976C49.6454 22.3999 48.9743 21.8281 48.4771 21.0824C47.9799 20.3295 47.7314 19.4205 47.7314 18.3551C47.7314 17.4176 47.916 16.6577 48.2853 16.0753C48.6547 15.4858 49.1483 15.0241 49.7662 14.6903C50.3841 14.3565 51.0659 14.108 51.8116 13.9446C52.5645 13.7741 53.3208 13.6392 54.0808 13.5398C55.0751 13.4119 55.8812 13.3161 56.4991 13.2521C57.1241 13.1811 57.5787 13.0639 57.8627 12.9006C58.1539 12.7372 58.2995 12.4531 58.2995 12.0483V11.9631C58.2995 10.9119 58.0119 10.0952 57.4366 9.51278C56.8684 8.9304 56.0055 8.6392 54.8478 8.6392C53.6475 8.6392 52.7065 8.90199 52.0247 9.42756C51.3429 9.95312 50.8635 10.5142 50.5865 11.1108L48.2001 10.2585C48.6262 9.2642 49.1944 8.49006 49.9047 7.93608C50.622 7.375 51.4032 6.98437 52.2484 6.7642C53.1007 6.53693 53.9387 6.4233 54.7626 6.4233C55.2882 6.4233 55.8919 6.48722 56.5737 6.61506C57.2626 6.73579 57.9267 6.98793 58.5659 7.37145C59.2122 7.75497 59.7484 8.33381 60.1745 9.10795C60.6007 9.8821 60.8137 10.919 60.8137 12.2188V23H58.2995V20.7841H58.1717C58.0012 21.1392 57.7172 21.5192 57.3194 21.924C56.9217 22.3288 56.3926 22.6733 55.7321 22.9574C55.0716 23.2415 54.2654 23.3835 53.3137 23.3835ZM53.6973 21.125C54.6916 21.125 55.5297 20.9297 56.2115 20.5391C56.9004 20.1484 57.4189 19.6442 57.7669 19.0263C58.122 18.4084 58.2995 17.7585 58.2995 17.0767V14.7756C58.193 14.9034 57.9586 15.0206 57.5964 15.1271C57.2413 15.2266 56.8294 15.3153 56.3606 15.3935C55.899 15.4645 55.448 15.5284 55.0076 15.5852C54.5744 15.6349 54.2228 15.6776 53.9529 15.7131C53.2995 15.7983 52.6887 15.9368 52.1206 16.1286C51.5595 16.3132 51.1049 16.5937 50.7569 16.9702C50.416 17.3395 50.2456 17.8437 50.2456 18.483C50.2456 19.3565 50.5687 20.017 51.215 20.4645C51.8684 20.9048 52.6958 21.125 53.6973 21.125ZM65.4027 6.63636H67.9169V24.1932C67.9169 25.2017 67.7429 26.0753 67.3949 26.8139C67.054 27.5526 66.5355 28.1243 65.8395 28.5291C65.1506 28.9339 64.2805 29.1364 63.2294 29.1364C63.1442 29.1364 63.0589 29.1364 62.9737 29.1364C62.8885 29.1364 62.8033 29.1364 62.718 29.1364V26.7926C62.8033 26.7926 62.8814 26.7926 62.9524 26.7926C63.0234 26.7926 63.1016 26.7926 63.1868 26.7926C63.9538 26.7926 64.5149 26.5653 64.87 26.1108C65.2251 25.6634 65.4027 25.0241 65.4027 24.1932V6.63636ZM66.6385 3.90909C66.1484 3.90909 65.7259 3.74219 65.3707 3.40838C65.0227 3.07457 64.8487 2.6733 64.8487 2.20455C64.8487 1.7358 65.0227 1.33452 65.3707 1.00071C65.7259 0.666903 66.1484 0.5 66.6385 0.5C67.1286 0.5 67.5476 0.666903 67.8956 1.00071C68.2507 1.33452 68.4283 1.7358 68.4283 2.20455C68.4283 2.6733 68.2507 3.07457 67.8956 3.40838C67.5476 3.74219 67.1286 3.90909 66.6385 3.90909ZM72.5218 23V6.63636H75.036V23H72.5218ZM73.8002 3.90909C73.3102 3.90909 72.8876 3.74219 72.5325 3.40838C72.1845 3.07457 72.0105 2.6733 72.0105 2.20455C72.0105 1.7358 72.1845 1.33452 72.5325 1.00071C72.8876 0.666903 73.3102 0.5 73.8002 0.5C74.2903 0.5 74.7093 0.666903 75.0574 1.00071C75.4125 1.33452 75.59 1.7358 75.59 2.20455C75.59 2.6733 75.4125 3.07457 75.0574 3.40838C74.7093 3.74219 74.2903 3.90909 73.8002 3.90909ZM84.4563 23.3835C83.4194 23.3835 82.4783 23.1882 81.6332 22.7976C80.788 22.3999 80.1168 21.8281 79.6197 21.0824C79.1225 20.3295 78.8739 19.4205 78.8739 18.3551C78.8739 17.4176 79.0586 16.6577 79.4279 16.0753C79.7972 15.4858 80.2908 15.0241 80.9087 14.6903C81.5266 14.3565 82.2085 14.108 82.9542 13.9446C83.707 13.7741 84.4634 13.6392 85.2234 13.5398C86.2177 13.4119 87.0238 13.3161 87.6417 13.2521C88.2667 13.1811 88.7212 13.0639 89.0053 12.9006C89.2965 12.7372 89.4421 12.4531 89.4421 12.0483V11.9631C89.4421 10.9119 89.1545 10.0952 88.5792 9.51278C88.011 8.9304 87.1481 8.6392 85.9904 8.6392C84.7901 8.6392 83.8491 8.90199 83.1673 9.42756C82.4854 9.95312 82.006 10.5142 81.729 11.1108L79.3427 10.2585C79.7688 9.2642 80.337 8.49006 81.0472 7.93608C81.7646 7.375 82.5458 6.98437 83.391 6.7642C84.2433 6.53693 85.0813 6.4233 85.9052 6.4233C86.4308 6.4233 87.0344 6.48722 87.7163 6.61506C88.4052 6.73579 89.0692 6.98793 89.7085 7.37145C90.3548 7.75497 90.891 8.33381 91.3171 9.10795C91.7433 9.8821 91.9563 10.919 91.9563 12.2188V23H89.4421V20.7841H89.3143C89.1438 21.1392 88.8597 21.5192 88.462 21.924C88.0643 22.3288 87.5352 22.6733 86.8746 22.9574C86.2141 23.2415 85.408 23.3835 84.4563 23.3835ZM84.8398 21.125C85.8342 21.125 86.6722 20.9297 87.354 20.5391C88.043 20.1484 88.5614 19.6442 88.9094 19.0263C89.2646 18.4084 89.4421 17.7585 89.4421 17.0767V14.7756C89.3356 14.9034 89.1012 15.0206 88.739 15.1271C88.3839 15.2266 87.9719 15.3153 87.5032 15.3935C87.0415 15.4645 86.5906 15.5284 86.1502 15.5852C85.717 15.6349 85.3654 15.6776 85.0955 15.7131C84.4421 15.7983 83.8313 15.9368 83.2631 16.1286C82.7021 16.3132 82.2475 16.5937 81.8995 16.9702C81.5586 17.3395 81.3881 17.8437 81.3881 18.483C81.3881 19.3565 81.7113 20.017 82.3576 20.4645C83.011 20.9048 83.8384 21.125 84.8398 21.125ZM99.0595 1.18182V23H96.5453V1.18182H99.0595ZM103.664 23V6.63636H106.179V23H103.664ZM104.943 3.90909C104.453 3.90909 104.03 3.74219 103.675 3.40838C103.327 3.07457 103.153 2.6733 103.153 2.20455C103.153 1.7358 103.327 1.33452 103.675 1.00071C104.03 0.666903 104.453 0.5 104.943 0.5C105.433 0.5 105.852 0.666903 106.2 1.00071C106.555 1.33452 106.733 1.7358 106.733 2.20455C106.733 2.6733 106.555 3.07457 106.2 3.40838C105.852 3.74219 105.433 3.90909 104.943 3.90909ZM113.298 13.1562V23H110.784V6.63636H113.213V9.19318H113.426C113.809 8.36222 114.392 7.6946 115.173 7.19034C115.954 6.67898 116.963 6.4233 118.198 6.4233C119.306 6.4233 120.276 6.65057 121.107 7.10511C121.938 7.55256 122.584 8.23438 123.046 9.15057C123.507 10.0597 123.738 11.2102 123.738 12.6023V23H121.224V12.7727C121.224 11.4872 120.89 10.4858 120.222 9.76847C119.555 9.04403 118.639 8.68182 117.474 8.68182C116.671 8.68182 115.954 8.85582 115.322 9.20383C114.697 9.55185 114.203 10.0597 113.841 10.7273C113.479 11.3949 113.298 12.2045 113.298 13.1562ZM130.165 23.1705C129.639 23.1705 129.188 22.9822 128.812 22.6058C128.435 22.2294 128.247 21.7784 128.247 21.2528C128.247 20.7273 128.435 20.2763 128.812 19.8999C129.188 19.5234 129.639 19.3352 130.165 19.3352C130.69 19.3352 131.141 19.5234 131.518 19.8999C131.894 20.2763 132.082 20.7273 132.082 21.2528C132.082 21.6009 131.994 21.9205 131.816 22.2116C131.646 22.5028 131.415 22.7372 131.124 22.9148C130.839 23.0852 130.52 23.1705 130.165 23.1705Z" fill="black"/>
</svg>
